# xmcd
#
# Track frame offsets:
#	182
#	11912
#	24855
#	37852
#	49030
#	62340
#	75055
#	88655
#	103022
#	119577
#	131607
#	145540
#
# Disc length: 2156 seconds
#
# Revision: 0
# Processed by: cddbd v1.5PL3 Copyright (c) Steve Scherf et al.
# Submitted via: audiograbber 1.83.01
#
DISCID=87086a0c
DTITLE=Williams, Don - The Best Of Don Williams Volume 2
DYEAR=2001
DGENRE=Country
TTITLE0=I've Got A Winner In You
TTITLE1=Rake and Ramblin' Man
TTITLE2=Lay Down Beside Me
TTITLE3=It Must Be Love
TTITLE4=Love Me Over Again
TTITLE5=Falling Again
TTITLE6=Miracles
TTITLE7=Listen To The Radio
TTITLE8=Love Is On A Roll
TTITLE9=Nobody But You
TTITLE10=Stay Young
TTITLE11=That's The Thing About Love
EXTD=
EXTT0=
EXTT1=
EXTT2=
EXTT3=
EXTT4=
EXTT5=
EXTT6=
EXTT7=
EXTT8=
EXTT9=
EXTT10=
EXTT11=
PLAYORDER=
